<!-- Created with Inkscape (http://www.inkscape.org/) -->
<svg id="svg2" xmlns:rdf="http://www.w3.org/1999/02/22-rdf-syntax-ns#" xmlns="http://www.w3.org/2000/svg" height="38.274mm" width="55.494mm" version="1.1" xmlns:cc="http://creativecommons.org/ns#" xmlns:dc="http://purl.org/dc/elements/1.1/" viewBox="0 0 196.63086 135.61523">
 <metadata id="metadata7">
  <rdf:RDF>
   <cc:Work rdf:about="">
    <dc:format>image/svg+xml</dc:format>
    <dc:type rdf:resource="http://purl.org/dc/dcmitype/StillImage"/>
    <dc:title/>
   </cc:Work>
  </rdf:RDF>
 </metadata>
 <g id="layer1" transform="translate(1.3359 -.14844)">
  <flowRoot id="flowRoot4136" xml:space="preserve" style="letter-spacing:0px;font-size:40px;word-spacing:0px;font-family:sans-serif;line-height:125%;fill:#000000"><flowRegion id="flowRegion4138"><rect id="rect4140" y="252.36" width="474.29" x="148.57" height="460"/></flowRegion><flowPara id="flowPara4142"/></flowRoot>
  <path id="flowRoot4144" d="m48.586 0.14844c-14.238 0-25.986 3.5156-35.244 10.547-9.2578 6.9727-13.887 15.938-13.887 26.895 0 9.5508 2.7832 17.314 8.3496 23.291 5.625 5.918 14.238 10.107 25.84 12.568 5.7422 1.1719 11.162 2.1387 16.26 2.9004 5.1562 0.76172 9.9316 1.7285 14.326 2.9004 5.8008 1.5234 10.107 3.6621 12.92 6.416 2.8711 2.7539 4.3066 7.0312 4.3066 12.832 0 6.7383-3.0176 12.129-9.0527 16.172-5.9766 4.043-14.355 6.0645-25.137 6.0645-7.6172 0-15.762-1.4942-24.434-4.4824-8.6719-2.9883-16.318-7.2363-22.939-12.744h-1.2305v21.797c7.793 3.457 15.439 6.0644 22.939 7.8223 7.5586 1.7578 16.055 2.6367 25.488 2.6367 8.7891 0 16.289-1.0547 22.5-3.1641 6.2695-2.1094 11.748-5.0391 16.436-8.7891 4.2773-3.457 7.5879-7.6758 9.9316-12.656 2.4023-4.9805 3.6035-10.02 3.6035-15.117 0-9.375-2.4609-16.67-7.3828-21.885-4.924-5.22-12.248-9.117-21.975-11.695-4.805-1.231-10.664-2.432-17.578-3.604-6.914-1.171-12.246-2.168-15.996-2.988-7.09-1.641-12.041-4.014-14.854-7.119-2.8125-3.1055-4.2188-7.3828-4.2188-12.832 0-6.0938 2.8125-11.074 8.4375-14.941 5.6836-3.8672 13.184-5.8008 22.5-5.8008 8.4961 0 16.787 1.4062 24.873 4.2188 8.1445 2.7539 14.707 6.2402 19.688 10.459h1.2305v-12.746h33.34v117.95h18.354v-117.95h49.312v-16.955h-116.98v3.7207c-1.445-0.3746-2.911-0.741-4.421-1.0868-7.675-1.7579-16.113-2.6368-25.312-2.6368z"/>
 </g>
</svg>
