<svg id="svg2" xmlns:rdf="http://www.w3.org/1999/02/22-rdf-syntax-ns#" xmlns="http://www.w3.org/2000/svg" height="103.3mm" width="155.78mm" version="1.1" xmlns:cc="http://creativecommons.org/ns#" xmlns:dc="http://purl.org/dc/elements/1.1/" viewBox="0 0 551.97302 366.02628">
 <g id="layer1" transform="translate(-87.231 -115.42)">
  <g id="g4189" transform="translate(742.46 -157.58)">
   <path id="path4191" fill="#01264b" d="m-280.76 638.28c-24.218-2.0032-50.164-5.4423-120-15.906-66.447-9.9562-101.88-13.41-138-13.449-42.486-0.0458-78.008 4.8709-107.39 14.864-4.047 1.3765-7.7525 2.259-8.2345 1.9612-1.0909-0.67422-1.1517-332.44-0.0612-334.16 1.6535-2.6033 26.194-9.4916 47.13-13.229 22.301-3.9813 40.177-5.376 68.555-5.349 39.175 0.0373 68.349 3.059 157.5 16.314 83.125 12.359 94.282 13.51 130.5 13.465 29.501-0.0368 44.139-1.1725 78.5-6.0906 17.875-2.5584 50.701-8.3412 61.466-10.828 3.2938-0.76095 6.3365-1.1686 6.7616-0.90591 0.42505 0.26269 0.77282 75.611 0.77282 167.44v166.96l-2.25 0.94889c-4.5748 1.9293-49.046 9.957-74.624 13.471-32.628 4.4822-76.864 6.4564-100.63 4.4909zm54.728-96.37c4.0722-0.77915 10.985-2.7977 15.363-4.4858 9.7284-3.7516 23.409-12.498 23.409-14.966 0-2.2475-16.608-22.132-18.485-22.132-0.77808 0-3.5391 1.4338-6.1356 3.1861-10.86 7.3292-27.807 10.537-41.595 7.8736-21.68-4.1878-39.521-22.156-44.272-44.588-1.8552-8.7581-1.8566-13.162-0.007-21.971 8.0926-38.545 51.236-57.287 85.029-36.938 3.1401 1.8909 6.3139 3.438 7.0529 3.438 1.7853 0 18.414-19.91 18.414-22.047 0-1.8582-7.5838-7.2142-16.595-11.72-43.447-21.725-96.206-3.3954-117.34 40.768-3.919 8.1882-7.3631 20.31-8.5951 30.25-0.32378 2.6125-0.89862 4.7119-1.2774 4.6654-0.3788-0.0465-2.1914-1.8332-4.0279-3.9703l-3.3392-3.8857 2.0755-2.9148c6.05-8.4965 9.0009-22.159 7.1213-32.972-3.0062-17.294-14.652-31.065-31.599-37.364-5.7036-2.12-7.5292-2.2139-50.099-2.5774-30.906-0.2639-44.797-0.0466-46.236 0.72327-1.9974 1.069-2.0639 1.9804-2.3207 31.823l-0.26441 30.723-40.438 0.26151c-22.309 0.14426-40.832-0.13246-41.317-0.61726-0.48332-0.48332-0.961-14.401-1.0615-30.928s-0.55658-30.424-1.0135-30.883c-1.0423-1.0454-21.705-1.7367-26.276-0.87918l-3.3935 0.63662v85.409 85.409l3.3935 0.63662c4.5704 0.8574 25.233 0.16625 26.276-0.87889 0.45691-0.4581 0.96623-17.783 1.1318-38.5 0.16558-20.717 0.64326-38.01 1.0615-38.429 0.41824-0.41883 18.958-0.64383 41.199-0.5l40.438 0.26151 0.26186 38.221c0.25744 37.578 0.29694 38.24 2.3457 39.336 1.4784 0.7912 15.204 0.99454 47.238 0.69981 39.676-0.36503 45.822-0.62974 50.654-2.1818 18.315-5.8819 32.354-19.936 37.616-37.654 0.83605-2.8153 1.7049-4.9339 1.9308-4.708 0.22589 0.2259 2.1488 3.0828 4.2731 6.3486 12.684 19.5 33.065 33.262 56.18 37.936 8.7736 1.7739 24.196 1.8136 33.228 0.0855zm-201.75-31.777c-0.28532-0.74353-0.39737-11.467-0.24902-23.829l0.26974-22.477 26.5-0.26802c29.922-0.30264 34.948 0.32322 41.271 5.14 11.837 9.0168 12.587 26.825 1.523 36.154-6.8134 5.7449-7.8381 5.9078-39.545 6.2849-23.894 0.28416-29.346 0.1003-29.77-1.004zm-0.0115-78.03c-0.28799-0.75049-0.39856-8.0948-0.2457-16.321l0.27792-14.956 25-0.30956c29.777-0.3687 33.84 0.22987 38.796 5.715 7.2977 8.0776 5.1056 19.477-4.7956 24.94-2.5444 1.4037-7.2149 1.7037-30.754 1.9756-22.743 0.26271-27.849 0.0742-28.278-1.0439z"/>
  </g>
 </g>
</svg>
